<?xml version="1.0" standalone="no"?>
<!DOCTYPE svg PUBLIC "-//W3C//DTD SVG 20010904//EN"
 "http://www.w3.org/TR/2001/REC-SVG-20010904/DTD/svg10.dtd">
<svg version="1.0" xmlns="http://www.w3.org/2000/svg"
 width="512.000000pt" height="512.000000pt" viewBox="0 0 512.000000 512.000000"
 preserveAspectRatio="xMidYMid meet">
<metadata>
Created by potrace 1.11, written by Peter Selinger 2001-2013
</metadata>
<g transform="translate(0.000000,512.000000) scale(0.100000,-0.100000)"
fill="#000000" stroke="none">
<path d="M2441 4788 c-442 -45 -829 -317 -1015 -713 -47 -100 -87 -228 -101
-320 -3 -23 -8 -52 -11 -65 -3 -14 -5 -79 -6 -145 -1 -219 44 -390 164 -624
185 -358 243 -481 230 -481 -4 0 -2 -4 5 -8 10 -6 99 -231 108 -272 2 -8 8
-28 15 -45 6 -16 12 -32 12 -35 0 -3 2 -9 3 -15 12 -43 46 -196 60 -270 20
-105 26 -136 30 -150 1 -5 6 -23 10 -40 8 -38 52 -102 86 -127 14 -11 43 -23
65 -28 21 -5 239 -9 484 -7 509 2 497 0 557 89 29 45 63 159 76 258 19 141 85
371 167 579 57 145 342 716 352 706 2 -2 4 9 4 23 1 15 13 63 27 107 37 118
39 134 42 315 3 133 -1 182 -16 255 -11 50 -17 98 -15 108 2 9 1 15 -4 12 -4
-2 -18 26 -30 63 -39 116 -107 242 -189 347 -122 157 -302 300 -473 375 -42
19 -74 39 -71 44 3 5 1 6 -5 2 -7 -4 -49 4 -95 17 -141 42 -321 60 -466 45z"/>
<path d="M2061 1324 c-21 -27 -29 -97 -13 -120 21 -32 52 -34 516 -34 461 0
466 0 487 21 18 18 21 30 17 75 -3 38 -10 59 -24 69 -16 12 -94 14 -491 15
l-472 0 -20 -26z"/>
<path d="M2327 1080 c-247 -5 -249 -5 -268 -29 -12 -15 -19 -39 -19 -66 0 -35
5 -48 26 -64 26 -21 36 -21 495 -21 456 0 470 1 489 20 15 15 20 33 20 70 0
83 -2 84 -268 90 -125 3 -339 3 -475 0z"/>
<path d="M2295 810 c-121 -4 -221 -7 -222 -8 -1 -1 -9 -9 -17 -18 -10 -10 -16
-33 -16 -64 0 -41 4 -52 26 -69 26 -21 36 -21 495 -21 456 0 470 1 489 20 14
14 20 33 20 68 0 89 8 86 -292 92 -145 3 -362 3 -483 0z"/>
<path d="M2226 513 c20 -87 116 -159 248 -187 179 -37 378 50 416 183 l9 31
-340 0 -339 0 6 -27z"/>
</g>
</svg>
